<mxfile host="app.diagrams.net" modified="2023-12-07T03:03:28.983Z" agent="Mozilla/5.0 (Macintosh; Intel Mac OS X 10_15_7) AppleWebKit/605.1.15 (KHTML, like Gecko) Version/17.1.2 Safari/605.1.15" version="22.1.7" etag="DRdh3l56FhQSkPuO5K-Y" type="github">
  <diagram name="第 1 页" id="8HpZxbpKMXZ0RlU-LvDV">
    <mxGraphModel>
      <root>
        <mxCell id="0" />
        <mxCell id="1" parent="0" />
      </root>
    </mxGraphModel>
  </diagram>
</mxfile>
